# xmcd
#
# Track frame offsets:
#	150
#	13991
#	28283
#	44306
#	61535
#	77459
#	90443
#	104445
#	119820
#	136663
#	152162
#	161769
#	174048
#	187835
#
# Disc length: 2684
#
# Revision: 3
# Processed by: cddbd v1.5.1PL0 Copyright (c) Steve Scherf et al.
# Submitted via: EZCDDA 4.3.2
# Normalized: r2:TRMNUM
#
DISCID=a60a7a0e
DTITLE=João Paulo e Daniel - Bailão do João Paulo e Daniel - Bailão do 
DYEAR=1900
DGENRE=
TTITLE0=Eu Me Amarrei
TTITLE1=Enrosca, Enrosca
TTITLE2=Tô Ficando Louco
TTITLE3=Acabou
TTITLE4=Saudade Maluca
TTITLE5=Vai e Volta
TTITLE6=Fogo de Amor
TTITLE7=Rosto Molhado
TTITLE8=Desejo de Amar
TTITLE9=A Loira do Carro Branco
TTITLE10=Dose de Paixão
TTITLE11=Sina de Caminhoneiro
TTITLE12=Pede pra Voltar
TTITLE13=Pedindo Bis
EXTD=
EXTT0=
EXTT1=
EXTT2=
EXTT3=
EXTT4=
EXTT5=
EXTT6=
EXTT7=
EXTT8=
EXTT9=
EXTT10=
EXTT11=
EXTT12=
EXTT13=
PLAYORDER=
